<svg width="180" height="40" viewBox="0 0 67 12" fill="none" xmlns="http://www.w3.org/2000/svg">
<path d="M6.14915 0.272727H7.99432V5.94034C7.99432 6.5767 7.84233 7.13352 7.53835 7.6108C7.23722 8.08807 6.81534 8.46023 6.27273 8.72727C5.73011 8.99148 5.09801 9.12358 4.37642 9.12358C3.65199 9.12358 3.01847 8.99148 2.47585 8.72727C1.93324 8.46023 1.51136 8.08807 1.21023 7.6108C0.909091 7.13352 0.758523 6.5767 0.758523 5.94034V0.272727H2.60369V5.78267C2.60369 6.11506 2.67614 6.41051 2.82102 6.66903C2.96875 6.92756 3.17614 7.13068 3.44318 7.27841C3.71023 7.42614 4.02131 7.5 4.37642 7.5C4.73438 7.5 5.04545 7.42614 5.30966 7.27841C5.5767 7.13068 5.78267 6.92756 5.92756 6.66903C6.07528 6.41051 6.14915 6.11506 6.14915 5.78267V0.272727ZM11.2937 0.272727V9H9.47834V0.272727H11.2937ZM16.2294 2.45455V3.81818H12.2876V2.45455H16.2294ZM13.1825 0.886364H14.9979V6.98864C14.9979 7.15625 15.0234 7.28693 15.0746 7.38068C15.1257 7.47159 15.1967 7.53551 15.2876 7.57244C15.3814 7.60937 15.4893 7.62784 15.6115 7.62784C15.6967 7.62784 15.782 7.62074 15.8672 7.60653C15.9524 7.58949 16.0178 7.5767 16.0632 7.56818L16.3487 8.91903C16.2578 8.94744 16.13 8.98011 15.9652 9.01705C15.8004 9.05682 15.6001 9.08097 15.3643 9.08949C14.9268 9.10653 14.5433 9.0483 14.2138 8.91477C13.8871 8.78125 13.6328 8.57386 13.451 8.29261C13.2692 8.01136 13.1797 7.65625 13.1825 7.22727V0.886364ZM17.4119 9V2.45455H19.1719V3.59659H19.2401C19.3594 3.19034 19.5597 2.88352 19.8409 2.67614C20.1222 2.46591 20.446 2.3608 20.8125 2.3608C20.9034 2.3608 21.0014 2.36648 21.1065 2.37784C21.2116 2.3892 21.304 2.40483 21.3835 2.42472V4.03551C21.2983 4.00994 21.1804 3.98722 21.0298 3.96733C20.8793 3.94744 20.7415 3.9375 20.6165 3.9375C20.3494 3.9375 20.1108 3.99574 19.9006 4.11222C19.6932 4.22585 19.5284 4.38494 19.4062 4.58949C19.2869 4.79403 19.2273 5.02983 19.2273 5.29688V9H17.4119ZM24.0011 9.12358C23.5835 9.12358 23.2113 9.05114 22.8846 8.90625C22.5579 8.75852 22.2994 8.54119 22.109 8.25426C21.9215 7.96449 21.8278 7.60369 21.8278 7.17188C21.8278 6.80824 21.8945 6.50284 22.0281 6.25568C22.1616 6.00852 22.3434 5.80966 22.5735 5.65909C22.8036 5.50852 23.065 5.39489 23.3576 5.31818C23.6531 5.24148 23.9627 5.1875 24.2866 5.15625C24.6673 5.11648 24.9741 5.07955 25.207 5.04545C25.44 5.00852 25.609 4.95455 25.7141 4.88352C25.8192 4.8125 25.8718 4.70739 25.8718 4.56818V4.54261C25.8718 4.27273 25.7866 4.06392 25.6161 3.91619C25.4485 3.76847 25.2099 3.6946 24.9002 3.6946C24.5735 3.6946 24.3136 3.76705 24.1204 3.91193C23.9272 4.05398 23.7994 4.23295 23.7369 4.44886L22.0579 4.3125C22.1431 3.91477 22.3107 3.57102 22.5607 3.28125C22.8107 2.98864 23.1332 2.7642 23.5281 2.60795C23.9258 2.44886 24.386 2.36932 24.9087 2.36932C25.2724 2.36932 25.6204 2.41193 25.9528 2.49716C26.288 2.58239 26.5849 2.71449 26.8434 2.89347C27.1048 3.07244 27.3107 3.30256 27.4613 3.58381C27.6119 3.86222 27.6871 4.19602 27.6871 4.58523V9H25.9656V8.09233H25.9144C25.8093 8.29688 25.6687 8.47727 25.4925 8.63352C25.3164 8.78693 25.1048 8.90767 24.8576 8.99574C24.6104 9.08097 24.3249 9.12358 24.0011 9.12358ZM24.521 7.87074C24.788 7.87074 25.0238 7.81818 25.2283 7.71307C25.4329 7.60511 25.5934 7.46023 25.7099 7.27841C25.8263 7.09659 25.8846 6.89062 25.8846 6.66051V5.96591C25.8278 6.00284 25.7496 6.03693 25.6502 6.06818C25.5536 6.09659 25.4442 6.12358 25.3221 6.14915C25.1999 6.17187 25.0778 6.19318 24.9556 6.21307C24.8335 6.23011 24.7227 6.24574 24.6232 6.25994C24.4102 6.29119 24.2241 6.34091 24.065 6.40909C23.9059 6.47727 23.7823 6.5696 23.6942 6.68608C23.6062 6.79972 23.5621 6.94176 23.5621 7.11222C23.5621 7.35938 23.6516 7.5483 23.8306 7.67898C24.0124 7.80682 24.2425 7.87074 24.521 7.87074Z" fill="#F7941E"/>
<path d="M37.6939 3.09375C37.6342 2.88636 37.5504 2.70312 37.4425 2.54403C37.3345 2.3821 37.2024 2.24574 37.0462 2.13494C36.8928 2.02131 36.7166 1.93466 36.5178 1.875C36.3217 1.81534 36.1044 1.78551 35.8658 1.78551C35.4197 1.78551 35.0277 1.89631 34.6896 2.1179C34.3544 2.33949 34.093 2.66193 33.9055 3.08523C33.718 3.50568 33.6243 4.01989 33.6243 4.62784C33.6243 5.2358 33.7166 5.75284 33.9013 6.17898C34.0859 6.60511 34.3473 6.9304 34.6854 7.15483C35.0234 7.37642 35.4226 7.48722 35.8828 7.48722C36.3004 7.48722 36.657 7.41335 36.9524 7.26562C37.2507 7.11506 37.478 6.90341 37.6342 6.63068C37.7933 6.35795 37.8729 6.03551 37.8729 5.66335L38.2479 5.71875H35.9979V4.32955H39.6499V5.42898C39.6499 6.19602 39.4879 6.85511 39.1641 7.40625C38.8402 7.95455 38.3942 8.37784 37.826 8.67614C37.2578 8.97159 36.6072 9.11932 35.8743 9.11932C35.0561 9.11932 34.3374 8.93892 33.718 8.57812C33.0987 8.21449 32.6158 7.69886 32.2692 7.03125C31.9254 6.3608 31.7536 5.56534 31.7536 4.64489C31.7536 3.9375 31.8558 3.30682 32.0604 2.75284C32.2678 2.19602 32.5575 1.72443 32.9297 1.33807C33.3018 0.951704 33.7351 0.65767 34.2294 0.455966C34.7237 0.254261 35.2592 0.153409 35.8359 0.153409C36.3303 0.153409 36.7905 0.225852 37.2166 0.370739C37.6428 0.512784 38.0206 0.714489 38.3501 0.975852C38.6825 1.23722 38.9538 1.5483 39.1641 1.90909C39.3743 2.26705 39.5092 2.66193 39.5689 3.09375H37.6939ZM41.0018 9V2.45455H42.7617V3.59659H42.8299C42.9492 3.19034 43.1495 2.88352 43.4308 2.67614C43.712 2.46591 44.0359 2.3608 44.4023 2.3608C44.4933 2.3608 44.5913 2.36648 44.6964 2.37784C44.8015 2.3892 44.8938 2.40483 44.9734 2.42472V4.03551C44.8881 4.00994 44.7702 3.98722 44.6197 3.96733C44.4691 3.94744 44.3313 3.9375 44.2063 3.9375C43.9393 3.9375 43.7006 3.99574 43.4904 4.11222C43.283 4.22585 43.1183 4.38494 42.9961 4.58949C42.8768 4.79403 42.8171 5.02983 42.8171 5.29688V9H41.0018ZM48.5646 9.12784C47.9027 9.12784 47.3303 8.98722 46.8473 8.70597C46.3672 8.42187 45.9964 8.02699 45.7351 7.52131C45.4737 7.01278 45.343 6.4233 45.343 5.75284C45.343 5.0767 45.4737 4.4858 45.7351 3.98011C45.9964 3.47159 46.3672 3.0767 46.8473 2.79545C47.3303 2.51136 47.9027 2.36932 48.5646 2.36932C49.2266 2.36932 49.7976 2.51136 50.2777 2.79545C50.7607 3.0767 51.1328 3.47159 51.3942 3.98011C51.6555 4.4858 51.7862 5.0767 51.7862 5.75284C51.7862 6.4233 51.6555 7.01278 51.3942 7.52131C51.1328 8.02699 50.7607 8.42187 50.2777 8.70597C49.7976 8.98722 49.2266 9.12784 48.5646 9.12784ZM48.5732 7.72159C48.8743 7.72159 49.1257 7.63636 49.3274 7.46591C49.5291 7.29261 49.6811 7.05682 49.7834 6.75852C49.8885 6.46023 49.9411 6.12074 49.9411 5.74006C49.9411 5.35938 49.8885 5.01989 49.7834 4.72159C49.6811 4.4233 49.5291 4.1875 49.3274 4.0142C49.1257 3.84091 48.8743 3.75426 48.5732 3.75426C48.2692 3.75426 48.0135 3.84091 47.8061 4.0142C47.6016 4.1875 47.4467 4.4233 47.3416 4.72159C47.2393 5.01989 47.1882 5.35938 47.1882 5.74006C47.1882 6.12074 47.2393 6.46023 47.3416 6.75852C47.4467 7.05682 47.6016 7.29261 47.8061 7.46591C48.0135 7.63636 48.2692 7.72159 48.5732 7.72159ZM57.1641 6.21307V2.45455H58.9794V9H57.2365V7.81108H57.1683C57.0206 8.1946 56.7749 8.50284 56.4311 8.7358C56.0902 8.96875 55.674 9.08523 55.1825 9.08523C54.745 9.08523 54.3601 8.9858 54.0277 8.78693C53.6953 8.58807 53.4354 8.3054 53.2479 7.93892C53.0632 7.57244 52.9695 7.13352 52.9666 6.62216V2.45455H54.782V6.2983C54.7848 6.68466 54.8885 6.99006 55.093 7.21449C55.2976 7.43892 55.5717 7.55114 55.9155 7.55114C56.1342 7.55114 56.3388 7.50142 56.5291 7.40199C56.7195 7.29972 56.8729 7.14915 56.9893 6.95028C57.1087 6.75142 57.1669 6.50568 57.1641 6.21307ZM60.4315 11.4545V2.45455H62.2212V3.55398H62.3022C62.3817 3.37784 62.4968 3.19886 62.6474 3.01705C62.8008 2.83239 62.9996 2.67898 63.244 2.55682C63.4911 2.43182 63.7979 2.36932 64.1644 2.36932C64.6417 2.36932 65.082 2.49432 65.4854 2.74432C65.8888 2.99148 66.2113 3.36506 66.4528 3.86506C66.6942 4.36222 66.815 4.9858 66.815 5.7358C66.815 6.46591 66.6971 7.08239 66.4613 7.58523C66.2283 8.08523 65.9102 8.46449 65.5067 8.72301C65.1062 8.97869 64.6573 9.10653 64.1602 9.10653C63.8079 9.10653 63.5082 9.0483 63.261 8.93182C63.0167 8.81534 62.8164 8.66903 62.6602 8.4929C62.5039 8.31392 62.3846 8.13352 62.3022 7.9517H62.2468V11.4545H60.4315ZM62.2085 5.72727C62.2085 6.11648 62.2624 6.45597 62.3704 6.74574C62.4783 7.03551 62.6346 7.26136 62.8391 7.4233C63.0437 7.58239 63.2923 7.66193 63.5849 7.66193C63.8803 7.66193 64.1303 7.58097 64.3349 7.41903C64.5394 7.25426 64.6942 7.02699 64.7994 6.73722C64.9073 6.4446 64.9613 6.10795 64.9613 5.72727C64.9613 5.34943 64.9087 5.01705 64.8036 4.73011C64.6985 4.44318 64.5437 4.21875 64.3391 4.05682C64.1346 3.89489 63.8832 3.81392 63.5849 3.81392C63.2894 3.81392 63.0394 3.89205 62.8349 4.0483C62.6332 4.20455 62.4783 4.42614 62.3704 4.71307C62.2624 5 62.2085 5.33807 62.2085 5.72727Z" fill="black"/>
</svg>
